<?xml version="1.0" encoding="utf-8"?>
<svg viewBox="0 0 100 25" xmlns="http://www.w3.org/2000/svg">
  <path d="M 7.709 18.023 L 10.153 6.355 L 12.548 6.355 L 10.519 16.073 L 16.456 16.073 L 16.05 18.023 Z M 6.977 19.174 L 16.934 19.174 L 16.934 19.912 L 6.977 19.912 Z M 18.339 13.447 Q 18.339 12.412 18.65 11.266 Q 19.055 9.73 19.887 8.6 Q 20.719 7.469 21.984 6.813 Q 23.25 6.156 24.866 6.156 Q 27.03 6.156 28.363 7.501 Q 29.697 8.846 29.697 11.067 Q 29.697 12.913 28.829 14.64 Q 27.962 16.368 26.473 17.299 Q 24.985 18.23 23.107 18.23 Q 21.475 18.23 20.369 17.49 Q 19.262 16.75 18.801 15.655 Q 18.339 14.561 18.339 13.447 Z M 20.711 13.399 Q 20.711 14.601 21.443 15.412 Q 22.175 16.224 23.369 16.224 Q 24.34 16.224 25.236 15.584 Q 26.131 14.943 26.716 13.642 Q 27.301 12.34 27.301 11.107 Q 27.301 9.73 26.561 8.946 Q 25.821 8.162 24.675 8.162 Q 22.916 8.162 21.813 9.801 Q 20.711 11.441 20.711 13.399 Z M 16.915 19.174 L 29.593 19.174 L 29.593 19.912 L 16.915 19.912 Z M 37.896 15.444 L 33.271 15.444 L 31.871 18.023 L 29.403 18.023 L 36.001 6.355 L 38.668 6.355 L 40.562 18.023 L 38.286 18.023 Z M 37.601 13.502 L 36.925 8.806 L 34.107 13.502 Z M 29.586 19.174 L 41.358 19.174 L 41.358 19.912 L 29.586 19.912 Z M 51.348 18.023 L 49.112 18.023 L 45.96 10.183 L 44.321 18.023 L 42.084 18.023 L 44.52 6.355 L 46.764 6.355 L 49.924 14.163 L 51.555 6.355 L 53.784 6.355 Z M 41.352 19.174 L 53.123 19.174 L 53.123 19.912 L 41.352 19.912 Z M 53.118 19.174 L 57.646 19.174 L 57.646 19.912 L 53.118 19.912 Z M 63.395 18.023 L 60.992 18.023 L 63.029 8.305 L 59.607 8.305 L 60.013 6.355 L 69.205 6.355 L 68.799 8.305 L 65.425 8.305 Z M 57.649 19.174 L 67.606 19.174 L 67.606 19.912 L 57.649 19.912 Z M 68.271 18.023 L 70.706 6.355 L 79.357 6.355 L 78.952 8.305 L 72.704 8.305 L 72.147 10.955 L 78.187 10.955 L 77.782 12.905 L 71.741 12.905 L 71.008 16.073 L 77.797 16.073 L 77.384 18.023 Z M 67.602 19.174 L 78.474 19.174 L 78.474 19.912 L 67.602 19.912 Z M 86.771 15.444 L 82.146 15.444 L 80.746 18.023 L 78.278 18.023 L 84.876 6.355 L 87.543 6.355 L 89.437 18.023 L 87.161 18.023 Z M 86.476 13.502 L 85.8 8.806 L 82.982 13.502 Z M 78.461 19.174 L 90.233 19.174 L 90.233 19.912 L 78.461 19.912 Z" style="fill: rgb(45, 43, 49); fill-rule: evenodd; paint-order: fill; white-space: pre; text-decoration: underline solid rgba(0, 0, 0, 0.8);"/>
</svg>